<?xml version="1.0" standalone="no"?>
<!DOCTYPE svg PUBLIC "-//W3C//DTD SVG 20010904//EN"
 "http://www.w3.org/TR/2001/REC-SVG-20010904/DTD/svg10.dtd">
<svg version="1.0" xmlns="http://www.w3.org/2000/svg"
 width="400.000000pt" height="400.000000pt" viewBox="0 0 400.000000 400.000000"
 preserveAspectRatio="xMidYMid meet">
<metadata>
Created by potrace 1.14, written by Peter Selinger 2001-2017
</metadata>
<g transform="translate(0.000000,400.000000) scale(0.100000,-0.100000)"
fill="#000000" stroke="none">
<path d="M354 3976 c-168 -54 -287 -179 -338 -355 -14 -48 -16 -223 -16 -1615
0 -1691 -2 -1612 56 -1731 36 -75 140 -180 214 -217 124 -61 28 -58 1736 -58
1389 0 1567 2 1615 16 182 53 318 189 364 365 21 77 22 3144 2 3229 -43 180
-188 327 -367 374 -47 12 -292 15 -1625 15 l-1570 0 -71 -23z"/>
</g>
</svg>
