<svg width="475" height="196" viewBox="0 0 475 196" fill="none" xmlns="http://www.w3.org/2000/svg">
<g clip-path="url(#clip0_29_145)">
<path d="M302.762 101.529L330.568 73.8183L302.762 46.1077L311.239 37.6617L347.522 73.8183L311.239 109.975L302.762 101.529Z" fill="#CCCCCC"/>
<path d="M180.666 101.529L152.833 73.8186L180.638 46.1079L172.161 37.662L135.906 73.8186L172.189 109.975L180.666 101.529Z" fill="#CCCCCC"/>
<path d="M302.762 96.1624L330.568 68.4517L302.762 40.7406L311.239 32.2947L347.522 68.4517L311.239 104.608L302.762 96.1624Z" fill="#2F2E41"/>
<path d="M215.298 100.109H226.601V88.8102H215.297L215.298 100.109ZM272.039 88.8102H260.736V100.109H272.039V88.8102ZM238.017 100.109H249.32V88.8102H238.017V100.109Z" fill="#2F2E41"/>
<path d="M180.666 96.1619L152.833 68.4513L180.638 40.7406L172.161 32.2947L135.906 68.4513L172.189 104.608L180.666 96.1619Z" fill="#2F2E41"/>
<path d="M58.0528 184.209L64.3804 185.738L73.2919 162.069L63.953 159.812L58.0528 184.209Z" fill="#A0616A"/>
<path d="M55.0569 189.889L57 181.855L69.3798 184.846C71.4632 185.352 73.2608 186.664 74.3781 188.493C75.4954 190.322 75.8413 192.52 75.3398 194.603L75.297 194.78L55.0569 189.889Z" fill="#1E1E1E"/>
<path d="M86.0639 188.518L92.5738 188.518L95.6703 163.418L86.063 163.418L86.0639 188.518Z" fill="#A0616A"/>
<path d="M84.4869 186.477L97.2234 186.476C99.368 186.476 101.425 187.328 102.942 188.844C104.458 190.36 105.31 192.416 105.31 194.56V194.742L84.4873 194.743L84.4869 186.477Z" fill="#1E1E1E"/>
<path d="M84.5364 179.833L85.6066 140.784L84.165 124.95L81.3519 137.135L69.0596 177.206L58.4627 174.418L70.7354 131.212L68.0699 103.5L75.7281 98.5787L75.8314 98.5974L101.996 103.419L95.6757 178.719L84.5364 179.833Z" fill="#1E1E1E"/>
<path d="M94.8916 108.855C92.7845 108.855 90.3203 108.176 87.5773 106.241C78.7997 100.048 68.3336 106.71 68.2288 106.777L67.8038 107.054L67.8187 106.547C67.8294 106.187 68.8806 70.324 68.8806 58.784C68.8806 46.8614 76.662 38.1563 79.047 35.7724C81.3878 33.4321 83.3574 33.4839 85.8508 33.5487C86.2804 33.5596 86.7283 33.5715 87.1994 33.5715C90.4577 33.5715 93.6256 36.7008 93.7589 36.834L93.8225 36.8977L93.8343 36.9869L102.876 105.039L102.807 105.126C102.765 105.18 99.7957 108.855 94.8916 108.855Z" fill="#CCCCCC"/>
<path d="M100.027 22.7705C103.481 16.4528 101.159 8.53171 94.8387 5.07816C88.5188 1.62462 80.5948 3.94644 77.14 10.2641C73.6852 16.5818 76.0079 24.5029 82.3278 27.9564C88.6478 31.41 96.5718 29.0882 100.027 22.7705Z" fill="#A0616A"/>
<path d="M108.547 119.751C107.93 119.273 107.426 118.666 107.069 117.972C106.712 117.278 106.512 116.514 106.483 115.734C106.453 114.955 106.595 114.178 106.898 113.459C107.201 112.74 107.659 112.096 108.238 111.573L100.832 94.1097L110.529 95.8939L116.075 112.204C116.89 113.234 117.298 114.528 117.223 115.84C117.147 117.151 116.593 118.39 115.665 119.32C114.737 120.25 113.5 120.808 112.188 120.888C110.876 120.967 109.581 120.563 108.547 119.751Z" fill="#A0616A"/>
<path d="M106.45 109.811L93.0673 82.5208L87.1994 61.9813L87.2041 44.1381C87.2173 44.0676 88.5967 37.1269 93.7096 37.6069C98.3458 38.0558 100.843 40.322 102.059 45.1847C103.092 49.3154 101.679 61.5702 101.542 62.7266C102.439 64.8529 115.898 96.9092 113.67 100.769C113.587 100.92 113.465 101.046 113.318 101.134L115.703 106.167L106.45 109.811Z" fill="#CCCCCC"/>
<path d="M86.9158 21.4288C88.4791 21.6322 89.6584 20.0332 90.2053 18.5552C90.7523 17.0771 91.169 15.3563 92.5283 14.5579C94.3852 13.4671 96.7612 14.779 98.8847 14.4192C101.283 14.0127 102.842 11.4721 102.964 9.04365C103.086 6.61523 102.12 4.2796 101.171 2.04062L100.84 4.82317C100.884 3.8801 100.686 2.94144 100.263 2.09698C99.8411 1.25252 99.2091 0.530505 98.4279 0L98.8547 4.08296C98.7639 3.51965 98.5626 2.97983 98.2626 2.49445C97.9625 2.00908 97.5695 1.58771 97.1061 1.25455C96.6428 0.921387 96.1181 0.682982 95.5624 0.553014C95.0066 0.423046 94.4306 0.404073 93.8675 0.497188L93.9347 2.92997C91.1648 2.60072 88.3708 2.27101 85.5927 2.52185C82.8146 2.77269 80.0172 3.65133 77.9116 5.48024C74.7621 8.216 73.6118 12.7208 73.998 16.8738C74.3842 21.0269 76.0992 24.9284 77.8866 28.6973C78.3363 29.6455 78.9583 30.7156 80.0011 30.8364C80.9381 30.9449 81.7955 30.1619 82.0867 29.2651C82.3112 28.3449 82.3025 27.3833 82.0615 26.4673C81.7979 25.0674 81.4657 23.6366 81.7135 22.2339C81.9613 20.8312 82.9707 19.445 84.3853 19.2731C85.7998 19.1012 87.2472 20.7175 86.5671 21.9692L86.9158 21.4288Z" fill="#6C63FF"/>
<path d="M409.717 118.013C409.282 117.517 408.961 116.932 408.776 116.298C408.592 115.665 408.549 114.998 408.65 114.346C408.751 113.694 408.993 113.072 409.361 112.524C409.728 111.976 410.211 111.515 410.776 111.174L407.439 95.4873L415.201 98.5276L417.18 112.958C417.691 113.945 417.822 115.084 417.548 116.161C417.274 117.237 416.615 118.176 415.695 118.799C414.775 119.422 413.658 119.686 412.557 119.541C411.455 119.397 410.445 118.853 409.717 118.013Z" fill="#FFB8B8"/>
<path d="M408.836 105.773L408.794 105.619C404.598 90.1037 400.26 74.0649 394.964 56.6016L394.929 56.4872L395.046 56.419C397.998 54.6972 402.435 54.8119 405.366 56.6855C406.693 57.5399 407.725 58.7812 408.323 60.2416C408.921 61.7019 409.055 63.3106 408.708 64.8497L412.57 84.9816C414.141 91.5624 415.766 98.374 417.319 105.09L417.363 105.281L417.123 105.296C414.295 105.476 411.373 105.662 409.032 105.765L408.836 105.773Z" fill="#CCCCCC"/>
<path d="M373.173 189.278H367.669L365.05 168.056H373.173V189.278Z" fill="#FFB8B8"/>
<path d="M374.577 194.612H356.829V194.387C356.831 192.557 357.56 190.801 358.855 189.507C360.15 188.212 361.906 187.484 363.738 187.482H374.577L374.577 194.612Z" fill="#1E1E1E"/>
<path d="M425.039 184.74L419.795 186.41L410.853 166.984L418.594 164.519L425.039 184.74Z" fill="#FFB8B8"/>
<path d="M411.087 194.782L411.019 194.568C410.464 192.823 410.625 190.929 411.466 189.303C412.307 187.676 413.759 186.449 415.503 185.892L425.831 182.602L427.997 189.395L411.087 194.782Z" fill="#1E1E1E"/>
<path d="M397.18 42.3833C403.27 42.3833 408.207 37.4482 408.207 31.3604C408.207 25.2726 403.27 20.3374 397.18 20.3374C391.09 20.3374 386.153 25.2726 386.153 31.3604C386.153 37.4482 391.09 42.3833 397.18 42.3833Z" fill="#FFB8B8"/>
<path d="M402.131 29.3175C402.194 24.8715 400.332 20.4684 397.455 18.2546C396.098 17.1804 394.411 16.6099 392.681 16.6404C390.951 16.671 389.285 17.3007 387.967 18.4222C385.134 20.7369 383.36 25.2042 383.51 29.6464C389.858 29.6645 396.207 29.6825 402.131 29.3175Z" fill="#6C63FF"/>
<path d="M376.316 182.447L376.095 182.426C371.306 181.956 366.355 181.471 361.675 181.415L361.421 181.412L361.455 181.16C362.564 173.133 363.034 164.788 363.489 156.717C363.938 148.749 364.401 140.509 365.482 132.683C365.94 130.587 366.385 128.516 366.83 126.453C370.505 109.38 373.976 93.2527 381.141 77.289L381.209 77.1382L381.373 77.1579C388.096 77.9711 394.556 80.4231 399.563 84.0619L399.66 84.1323L399.655 84.2521C399.558 86.7317 399.458 89.295 399.606 91.6299C401.879 94.7864 403.384 98.4284 404.004 102.268C404.624 106.107 404.341 110.037 403.177 113.748C405.149 120.334 407.187 127.143 409.266 133.859C414.317 147.699 419.542 162.021 424.899 176.54L424.987 176.778L424.74 176.836C420.886 177.74 416.91 178.673 412.988 179.035L412.84 179.049L412.769 178.918C402.767 160.31 394.633 140.759 388.486 120.549C387.147 124.629 385.219 128.312 383.351 131.88C381.564 135.125 379.992 138.484 378.645 141.934C377.818 148.721 377.598 156.073 377.387 163.183C377.186 169.906 376.997 176.256 376.34 182.227L376.316 182.447Z" fill="#1E1E1E"/>
<path d="M393.416 18.4586C398.196 17.4291 403.482 18.4085 407.236 21.6322C410.99 24.8558 412.896 30.4327 411.354 35.2156C409.812 39.9984 404.576 43.3636 399.843 42.1285C401.199 38.3082 399.673 33.6177 396.358 31.4172C392.427 28.8075 391.344 22.5771 393.416 18.4586Z" fill="#6C63FF"/>
<path d="M399.219 84.5412L399.044 84.4616C392.946 81.6808 386.968 79.547 381.366 77.6002L381.194 77.5631L381.194 77.0652L381.305 77.104C381.329 77.0523 381.355 76.9936 381.381 76.9351C381.458 76.7659 381.51 76.6506 381.555 76.5744L381.553 76.5737C382.02 75.6224 382.392 74.7031 382.751 73.8141C383.121 72.8965 383.503 71.9492 383.998 70.9468C382.8 69.7461 381.98 68.2211 381.639 66.56C381.297 64.899 381.45 63.1744 382.078 61.599C383.315 58.6671 386.47 56.3837 389.786 56.0048C391 52.6618 393.707 45.6375 393.707 45.6375C393.707 45.6375 399.399 45.4812 401.688 45.1909L401.727 45.186L401.765 45.1944C406.762 46.289 410.934 51.016 411.91 56.6898C412.734 61.4784 411.483 66.9559 408.387 72.1131C406.799 74.6351 405.042 77.0475 403.13 79.3338C401.735 81.0768 400.418 82.723 399.325 84.381L399.219 84.5412Z" fill="#CCCCCC"/>
<path d="M410.256 24.9906C406.91 24.4913 404.283 21.0724 404.663 17.7121C405.044 14.3518 408.368 11.606 411.741 11.8666C415.114 12.1273 417.977 15.3513 417.836 18.7301C417.696 22.1089 414.528 25.628 410.256 24.9906Z" fill="#6C63FF"/>
<path d="M409.733 22.8117C406.388 22.3125 403.761 18.8935 404.141 15.5332C404.307 14.3903 404.76 13.3079 405.457 12.387C406.154 11.4662 407.073 10.7368 408.129 10.2668C405.43 10.8572 403.108 13.2076 402.794 15.982C402.414 19.3423 405.041 22.7613 408.387 23.2605C409.633 23.4561 410.91 23.2776 412.055 22.7476C411.292 22.9079 410.505 22.9296 409.733 22.8117Z" fill="#6C63FF"/>
<path d="M344.832 82.0432C345.155 81.4677 345.6 80.97 346.136 80.585C346.672 80.2001 347.286 79.9373 347.935 79.8152C348.584 79.6931 349.251 79.7147 349.89 79.8784C350.53 80.0421 351.125 80.3439 351.635 80.7627L365.319 72.3903L365.038 80.7196L352.087 87.3932C351.326 88.2031 350.295 88.7061 349.188 88.8067C348.082 88.9073 346.977 88.5987 346.082 87.9392C345.188 87.2798 344.567 86.3153 344.337 85.2287C344.106 84.142 344.283 83.0086 344.832 82.0432Z" fill="#FFB8B8"/>
<path d="M356.083 77.1343L356.215 77.0437C369.451 67.9191 383.133 58.4868 397.84 47.6768L397.936 47.606L398.04 47.6934C400.647 49.9018 402.017 54.1216 401.227 57.5088C400.863 59.0442 400.036 60.4307 398.858 61.4807C397.68 62.5306 396.207 63.1933 394.64 63.3788L376.938 73.727C371.254 77.3997 365.371 81.201 359.554 84.9028L359.389 85.0077L359.294 84.7861C358.182 82.1804 357.033 79.4885 356.157 77.3163L356.083 77.1343Z" fill="#CCCCCC"/>
<path d="M171.503 195.113H0.44896C0.329889 195.113 0.215693 195.066 0.131497 194.982C0.0473007 194.898 0 194.784 0 194.665C0 194.546 0.0473007 194.431 0.131497 194.347C0.215693 194.263 0.329889 194.216 0.44896 194.216H171.503C171.622 194.216 171.736 194.263 171.82 194.347C171.904 194.431 171.952 194.546 171.952 194.665C171.952 194.784 171.904 194.898 171.82 194.982C171.736 195.066 171.622 195.113 171.503 195.113Z" fill="#6C63FF"/>
<path d="M474.551 195.113H303.497C303.378 195.113 303.264 195.066 303.18 194.982C303.096 194.898 303.048 194.784 303.048 194.665C303.048 194.546 303.096 194.431 303.18 194.347C303.264 194.263 303.378 194.216 303.497 194.216H474.551C474.67 194.216 474.784 194.263 474.869 194.347C474.953 194.431 475 194.546 475 194.665C475 194.784 474.953 194.898 474.869 194.982C474.784 195.066 474.67 195.113 474.551 195.113Z" fill="#6C63FF"/>
</g>
<defs>
<clipPath id="clip0_29_145">
<rect width="475" height="195.113" fill="white"/>
</clipPath>
</defs>
</svg>
